<svg xmlns="http://www.w3.org/2000/svg" version="1.1" xmlns:xlink="http://www.w3.org/1999/xlink" xmlns:svgjs="http://svgjs.dev/svgjs" width="2000" height="1252" viewBox="0 0 2000 1252"><g transform="matrix(1,0,0,1,-1.2121212121212466,146.89266911045934)"><svg viewBox="0 0 396 248" data-background-color="#757ed1" preserveAspectRatio="xMidYMid meet" height="1252" width="2000" xmlns="http://www.w3.org/2000/svg" xmlns:xlink="http://www.w3.org/1999/xlink"><g id="tight-bounds" transform="matrix(1,0,0,1,0.2400000000000091,0.4000000000000057)"><svg viewBox="0 0 395.52 247.2" height="247.2" width="395.52"><g><svg></svg></g><g><svg viewBox="0 0 395.52 247.2" height="247.2" width="395.52"><g transform="matrix(1,0,0,1,75.54432,92.78735693672962)"><svg viewBox="0 0 244.43135999999998 61.62528612654076" height="61.62528612654076" width="244.43135999999998"><g><svg viewBox="0 0 244.43135999999998 61.62528612654076" height="61.62528612654076" width="244.43135999999998"><g transform="matrix(1,0,0,1,0,38.0868991100673)"><svg viewBox="0 0 244.43135999999998 23.538387016473454" height="23.538387016473454" width="244.43135999999998"><g id="textblocktransform"><svg viewBox="0 0 244.43135999999998 23.538387016473454" height="23.538387016473454" width="244.43135999999998" id="textblock"><g><svg viewBox="0 0 244.43135999999998 23.538387016473454" height="23.538387016473454" width="244.43135999999998"><g transform="matrix(1,0,0,1,0,0)"><svg width="244.43135999999998" viewBox="1.75 -37.5 491.65 47.35" height="23.538387016473454" data-palette-color="#ffffff"><path d="M14.4-26.8L14.4-26.8Q18.1-26.8 20.68-25.18 23.25-23.55 24.63-20.53 26-17.5 25.95-13.3L25.95-13.3Q26-9.1 24.65-6.05 23.3-3 20.73-1.38 18.15 0.25 14.5 0.25L14.5 0.25Q10.7 0.25 7.83-1.48 4.95-3.2 3.35-6.28 1.75-9.35 1.75-13.35L1.75-13.35Q1.75-17.35 3.35-20.38 4.95-23.4 7.8-25.1 10.65-26.8 14.4-26.8ZM15.7-22.15L15.7-22.15Q13.3-22.15 11.45-21 9.6-19.85 8.58-17.82 7.55-15.8 7.5-13.2L7.5-13.2Q7.55-10.6 8.58-8.6 9.6-6.6 11.45-5.45 13.3-4.3 15.7-4.3L15.7-4.3Q18.1-4.3 19.95-5.45 21.8-6.6 22.83-8.6 23.85-10.6 23.85-13.2L23.85-13.2Q23.85-15.85 22.83-17.85 21.8-19.85 19.95-21 18.1-22.15 15.7-22.15ZM23.85 0L23.85-37.1 29.6-37.1 29.6 0 23.85 0ZM38.35 0L38.35-26.55 44.05-26.55 44.05 0 38.35 0ZM41.2-37.5L41.2-37.5Q42.65-37.5 43.6-36.55 44.55-35.6 44.55-34.15L44.55-34.15Q44.55-32.75 43.6-31.78 42.65-30.8 41.2-30.8L41.2-30.8Q39.8-30.8 38.82-31.78 37.85-32.75 37.85-34.15L37.85-34.15Q37.85-35.6 38.82-36.55 39.8-37.5 41.2-37.5ZM76.55-26.55L76.55-2.65Q76.55 1.2 74.85 4 73.15 6.8 70.05 8.33 66.95 9.85 62.75 9.85L62.75 9.85Q59.65 9.85 56.9 8.93 54.15 8 51.7 6.35L51.7 6.35 54.15 2.4Q56.05 3.8 58.05 4.58 60.05 5.35 62.5 5.35L62.5 5.35Q65.05 5.35 66.92 4.38 68.8 3.4 69.82 1.65 70.85-0.1 70.85-2.5L70.85-2.5 70.85-26.55 76.55-26.55ZM61.85-26.75L61.85-26.75Q65.35-26.8 67.82-25.28 70.3-23.75 71.6-20.9 72.9-18.05 72.85-14.05L72.85-14.05Q72.9-10.05 71.62-7.18 70.35-4.3 67.92-2.78 65.5-1.25 62.05-1.25L62.05-1.25Q58.45-1.25 55.75-2.88 53.05-4.5 51.55-7.4 50.05-10.3 50.05-14.1L50.05-14.1Q50.05-17.85 51.52-20.68 53-23.5 55.67-25.13 58.35-26.75 61.85-26.75ZM63.2-22.35L63.2-22.35Q60.95-22.35 59.2-21.28 57.45-20.2 56.47-18.3 55.5-16.4 55.45-13.95L55.45-13.95Q55.5-11.5 56.47-9.6 57.45-7.7 59.17-6.63 60.9-5.55 63.2-5.55L63.2-5.55Q65.45-5.55 67.17-6.63 68.9-7.7 69.87-9.6 70.85-11.5 70.85-13.95L70.85-13.95Q70.85-16.45 69.87-18.32 68.9-20.2 67.17-21.28 65.45-22.35 63.2-22.35ZM84.54 0L84.54-26.55 90.24-26.55 90.24 0 84.54 0ZM87.39-37.5L87.39-37.5Q88.84-37.5 89.79-36.55 90.74-35.6 90.74-34.15L90.74-34.15Q90.74-32.75 89.79-31.78 88.84-30.8 87.39-30.8L87.39-30.8Q85.99-30.8 85.02-31.78 84.04-32.75 84.04-34.15L84.04-34.15Q84.04-35.6 85.02-36.55 85.99-37.5 87.39-37.5ZM105.49-32.85L105.49-8.4Q105.49-6.25 106.24-5.48 106.99-4.7 108.34-4.7L108.34-4.7Q109.24-4.7 110.22-5 111.19-5.3 112.34-5.9L112.34-5.9 113.79-1.75Q112.24-0.8 110.59-0.28 108.94 0.25 107.24 0.25L107.24 0.25Q105.24 0.25 103.54-0.53 101.84-1.3 100.82-3 99.79-4.7 99.79-7.4L99.79-7.4 99.79-32.85 105.49-32.85ZM96.04-21.5L96.04-25.6 113.34-25.6 113.34-21.5 96.04-21.5ZM135.74-11.85L127.79-11.85Q124.99-11.85 123.64-11 122.29-10.15 122.29-8.2L122.29-8.2Q122.29-6.35 123.66-5.25 125.04-4.15 127.44-4.15L127.44-4.15Q129.59-4.15 131.29-4.9 132.99-5.65 133.99-6.93 134.99-8.2 135.04-9.8L135.04-9.8 136.14-4.95Q134.89-2.35 132.34-1.05 129.79 0.25 126.24 0.25L126.24 0.25Q123.39 0.25 121.29-0.85 119.19-1.95 118.04-3.83 116.89-5.7 116.89-8L116.89-8Q116.89-11.6 119.51-13.75 122.14-15.9 126.94-15.95L126.94-15.95 135.74-15.95 135.74-11.85ZM135.04 0L134.99-16.85Q134.99-19.45 133.39-20.9 131.79-22.35 128.64-22.35L128.64-22.35Q126.74-22.35 124.76-21.65 122.79-20.95 120.79-19.6L120.79-19.6 118.44-23.3Q120.29-24.45 121.94-25.2 123.59-25.95 125.46-26.35 127.34-26.75 129.89-26.75L129.89-26.75Q135.04-26.75 137.81-24.28 140.59-21.8 140.64-17.45L140.64-17.45 140.69 0 135.04 0ZM148.64 0L148.64-37.1 154.39-37.1 154.39 0 148.64 0ZM205.78-29.95L202.33-25.9Q200.43-28 197.83-29.2 195.23-30.4 192.58-30.4L192.58-30.4Q189.98-30.4 187.71-29.43 185.43-28.45 183.71-26.7 181.98-24.95 181.03-22.63 180.08-20.3 180.08-17.6L180.08-17.6Q180.08-14.95 181.03-12.63 181.98-10.3 183.71-8.55 185.43-6.8 187.71-5.8 189.98-4.8 192.58-4.8L192.58-4.8Q195.23-4.8 197.78-5.93 200.33-7.05 202.33-9L202.33-9 205.83-5.35Q204.08-3.6 201.86-2.3 199.63-1 197.21-0.3 194.78 0.4 192.28 0.4L192.28 0.4Q188.43 0.4 185.13-0.98 181.83-2.35 179.36-4.8 176.88-7.25 175.48-10.53 174.08-13.8 174.08-17.55L174.08-17.55Q174.08-21.3 175.48-24.53 176.88-27.75 179.41-30.2 181.93-32.65 185.26-34 188.58-35.35 192.48-35.35L192.48-35.35Q194.98-35.35 197.38-34.7 199.78-34.05 201.93-32.85 204.08-31.65 205.78-29.95L205.78-29.95ZM226.43-26.75L226.43-21.55Q223.58-21.7 221.5-20.58 219.43-19.45 218.3-17.45 217.18-15.45 217.18-12.85L217.18-12.85 215.58-13.05Q215.58-17.5 216.88-20.55 218.18-23.6 220.63-25.18 223.08-26.75 226.43-26.75L226.43-26.75ZM211.48 0L211.48-26.55 217.23-26.55 217.23 0 211.48 0ZM247.83-11.85L239.88-11.85Q237.08-11.85 235.73-11 234.38-10.15 234.38-8.2L234.38-8.2Q234.38-6.35 235.75-5.25 237.13-4.15 239.53-4.15L239.53-4.15Q241.68-4.15 243.38-4.9 245.08-5.65 246.08-6.93 247.08-8.2 247.13-9.8L247.13-9.8 248.23-4.95Q246.98-2.35 244.43-1.05 241.88 0.25 238.33 0.25L238.33 0.25Q235.48 0.25 233.38-0.85 231.28-1.95 230.13-3.83 228.98-5.7 228.98-8L228.98-8Q228.98-11.6 231.6-13.75 234.23-15.9 239.03-15.95L239.03-15.95 247.83-15.95 247.83-11.85ZM247.13 0L247.08-16.85Q247.08-19.45 245.48-20.9 243.88-22.35 240.73-22.35L240.73-22.35Q238.83-22.35 236.85-21.65 234.88-20.95 232.88-19.6L232.88-19.6 230.53-23.3Q232.38-24.45 234.03-25.2 235.68-25.95 237.55-26.35 239.43-26.75 241.98-26.75L241.98-26.75Q247.13-26.75 249.9-24.28 252.68-21.8 252.73-17.45L252.73-17.45 252.78 0 247.13 0ZM261.57 0L261.57-28.2Q261.57-31.35 262.9-33.38 264.22-35.4 266.32-36.38 268.42-37.35 270.72-37.35L270.72-37.35Q271.92-37.35 273.15-37.02 274.37-36.7 275.42-36.15L275.42-36.15 274.22-31.75Q273.52-32.05 272.65-32.33 271.77-32.6 270.87-32.6L270.87-32.6Q269.92-32.6 269.1-32.23 268.27-31.85 267.77-31.03 267.27-30.2 267.27-28.9L267.27-28.9 267.27 0 261.57 0ZM258.07-21.5L258.07-25.6 274.22-25.6 274.22-21.5 258.07-21.5ZM284.97-32.85L284.97-8.4Q284.97-6.25 285.72-5.48 286.47-4.7 287.82-4.7L287.82-4.7Q288.72-4.7 289.7-5 290.67-5.3 291.82-5.9L291.82-5.9 293.27-1.75Q291.72-0.8 290.07-0.28 288.42 0.25 286.72 0.25L286.72 0.25Q284.72 0.25 283.02-0.53 281.32-1.3 280.3-3 279.27-4.7 279.27-7.4L279.27-7.4 279.27-32.85 284.97-32.85ZM275.52-21.5L275.52-25.6 292.82-25.6 292.82-21.5 275.52-21.5ZM336.17-31.85L333.72-26.9Q331.82-28.1 329.97-28.8 328.12-29.5 326.47-29.8 324.82-30.1 323.47-30.1L323.47-30.1Q320.87-30.1 319.32-29.1 317.77-28.1 317.77-26.2L317.77-26.2Q317.77-24.5 318.79-23.43 319.82-22.35 321.49-21.68 323.17-21 325.19-20.4 327.22-19.8 329.22-19.07 331.22-18.35 332.92-17.2 334.62-16.05 335.62-14.28 336.62-12.5 336.62-9.8L336.62-9.8Q336.62-6.7 334.92-4.42 333.22-2.15 330.24-0.9 327.27 0.35 323.42 0.35L323.42 0.35Q320.67 0.35 318.07-0.38 315.47-1.1 313.19-2.35 310.92-3.6 309.12-5.25L309.12-5.25 311.67-10.1Q313.47-8.45 315.49-7.3 317.52-6.15 319.59-5.55 321.67-4.95 323.52-4.95L323.52-4.95Q326.62-4.95 328.34-6.15 330.07-7.35 330.07-9.5L330.07-9.5Q330.07-11.25 329.04-12.33 328.02-13.4 326.34-14.1 324.67-14.8 322.64-15.35 320.62-15.9 318.59-16.63 316.57-17.35 314.89-18.45 313.22-19.55 312.19-21.3 311.17-23.05 311.17-25.75L311.17-25.75Q311.17-28.7 312.77-30.88 314.37-33.05 317.24-34.25 320.12-35.45 323.92-35.45L323.92-35.45Q327.32-35.45 330.52-34.45 333.72-33.45 336.17-31.85L336.17-31.85ZM349.91-32.85L349.91-8.4Q349.91-6.25 350.66-5.48 351.41-4.7 352.76-4.7L352.76-4.7Q353.66-4.7 354.64-5 355.61-5.3 356.76-5.9L356.76-5.9 358.21-1.75Q356.66-0.8 355.01-0.28 353.36 0.25 351.66 0.25L351.66 0.25Q349.66 0.25 347.96-0.53 346.26-1.3 345.24-3 344.21-4.7 344.21-7.4L344.21-7.4 344.21-32.85 349.91-32.85ZM340.46-21.5L340.46-25.6 357.76-25.6 357.76-21.5 340.46-21.5ZM368.41-26.55L368.41-11.55Q368.41-8.45 370.06-6.68 371.71-4.9 374.61-4.9L374.61-4.9Q378.06-5 379.99-7.45 381.91-9.9 381.91-13.5L381.91-13.5 383.46-13.5Q383.46-8.6 382.11-5.6 380.76-2.6 378.29-1.23 375.81 0.15 372.41 0.2L372.41 0.2Q369.36 0.2 367.19-1.05 365.01-2.3 363.84-4.6 362.66-6.9 362.66-10.05L362.66-10.05 362.66-26.55 368.41-26.55ZM381.91 0L381.91-26.55 387.66-26.55 387.66 0 381.91 0ZM406.31-26.8L406.31-26.8Q410.01-26.8 412.58-25.18 415.16-23.55 416.53-20.53 417.91-17.5 417.86-13.3L417.86-13.3Q417.91-9.1 416.56-6.05 415.21-3 412.63-1.38 410.06 0.25 406.41 0.25L406.41 0.25Q402.61 0.25 399.73-1.48 396.86-3.2 395.26-6.28 393.66-9.35 393.66-13.35L393.66-13.35Q393.66-17.35 395.26-20.38 396.86-23.4 399.71-25.1 402.56-26.8 406.31-26.8ZM407.61-22.15L407.61-22.15Q405.21-22.15 403.36-21 401.51-19.85 400.48-17.82 399.46-15.8 399.41-13.2L399.41-13.2Q399.46-10.6 400.48-8.6 401.51-6.6 403.36-5.45 405.21-4.3 407.61-4.3L407.61-4.3Q410.01-4.3 411.86-5.45 413.71-6.6 414.73-8.6 415.76-10.6 415.76-13.2L415.76-13.2Q415.76-15.85 414.73-17.85 413.71-19.85 411.86-21 410.01-22.15 407.61-22.15ZM415.76 0L415.76-37.1 421.51-37.1 421.51 0 415.76 0ZM430.26 0L430.26-26.55 435.96-26.55 435.96 0 430.26 0ZM433.11-37.5L433.11-37.5Q434.56-37.5 435.51-36.55 436.46-35.6 436.46-34.15L436.46-34.15Q436.46-32.75 435.51-31.78 434.56-30.8 433.11-30.8L433.11-30.8Q431.71-30.8 430.73-31.78 429.76-32.75 429.76-34.15L429.76-34.15Q429.76-35.6 430.73-36.55 431.71-37.5 433.11-37.5ZM455.85-26.75L455.85-26.75Q459.95-26.75 463.08-25.05 466.2-23.35 467.95-20.33 469.7-17.3 469.7-13.3L469.7-13.3Q469.7-9.3 467.95-6.25 466.2-3.2 463.08-1.5 459.95 0.2 455.85 0.2L455.85 0.2Q451.75 0.2 448.6-1.5 445.45-3.2 443.7-6.25 441.95-9.3 441.95-13.3L441.95-13.3Q441.95-17.3 443.7-20.33 445.45-23.35 448.6-25.05 451.75-26.75 455.85-26.75ZM455.85-22.1L455.85-22.1Q453.45-22.1 451.6-20.98 449.75-19.85 448.73-17.85 447.7-15.85 447.7-13.25L447.7-13.25Q447.7-10.6 448.73-8.6 449.75-6.6 451.6-5.48 453.45-4.35 455.85-4.35L455.85-4.35Q458.25-4.35 460.08-5.48 461.9-6.6 462.93-8.6 463.95-10.6 463.95-13.25L463.95-13.25Q463.95-15.85 462.93-17.85 461.9-19.85 460.08-20.98 458.25-22.1 455.85-22.1ZM492.95-24.15L490.85-20.1Q489.1-21.15 487.03-21.78 484.95-22.4 483.2-22.4L483.2-22.4Q481.5-22.4 480.4-21.75 479.3-21.1 479.3-19.6L479.3-19.6Q479.3-18.35 480.33-17.63 481.35-16.9 482.95-16.4 484.55-15.9 486.35-15.35 488.15-14.8 489.78-13.93 491.4-13.05 492.4-11.55 493.4-10.05 493.4-7.6L493.4-7.6Q493.4-4.9 491.98-3.18 490.55-1.45 488.23-0.63 485.9 0.2 483.2 0.2L483.2 0.2Q480.3 0.2 477.4-0.75 474.5-1.7 472.5-3.5L472.5-3.5 474.55-7.4Q476.3-5.85 478.8-4.98 481.3-4.1 483.45-4.1L483.45-4.1Q484.7-4.1 485.68-4.42 486.65-4.75 487.23-5.4 487.8-6.05 487.8-7.1L487.8-7.1Q487.8-8.5 486.8-9.3 485.8-10.1 484.2-10.63 482.6-11.15 480.8-11.68 479-12.2 477.43-13.05 475.85-13.9 474.85-15.35 473.85-16.8 473.85-19.2L473.85-19.2Q473.85-21.9 475.25-23.58 476.65-25.25 478.88-26.03 481.1-26.8 483.65-26.8L483.65-26.8Q486.15-26.8 488.65-26.1 491.15-25.4 492.95-24.15L492.95-24.15Z" opacity="1" transform="matrix(1,0,0,1,0,0)" fill="#000000" class="wordmark-text-0" data-fill-palette-color="primary" id="text-0"></path></svg></g></svg></g></svg></g></svg></g><g transform="matrix(1,0,0,1,92.67308279334488,0)"><svg viewBox="0 0 59.085194413310234 32.530050856766316" height="32.530050856766316" width="59.085194413310234"><g><svg xmlns="http://www.w3.org/2000/svg" xmlns:xlink="http://www.w3.org/1999/xlink" version="1.1" x="0" y="0" viewBox="1.39 20.99 87.22 48.02000000000001" enable-background="new 0 0 90 90" xml:space="preserve" height="32.530050856766316" width="59.085194413310234" class="icon-icon-0" data-fill-palette-color="accent" id="icon-0"><rect x="1.39" y="45.49" width="23.52" height="23.52" fill="#000000" data-fill-palette-color="accent"></rect><polygon points="43.294,33.24 25.263,44.51 2.604,44.51 20.638,33.24 " fill="#000000" data-fill-palette-color="accent"></polygon><polygon points="64.108,44.727 25.89,68.617 25.89,45.273 64.108,21.382 " fill="#000000" data-fill-palette-color="accent"></polygon><polygon points="64.728,45.49 87.394,45.49 69.36,56.76 46.704,56.76 " fill="#000000" data-fill-palette-color="accent"></polygon><rect x="65.089" y="20.99" width="23.521" height="23.52" fill="#000000" data-fill-palette-color="accent"></rect></svg></g></svg></g><g></g></svg></g></svg></g><g><path d="M81.081 87.231A122.216 122.216 0 0 1 314.439 87.231L312.316 87.231A120.093 120.093 0 0 0 83.204 87.231L81.081 87.231M81.081 159.969A122.216 122.216 0 0 0 314.439 159.969L312.316 159.969A120.093 120.093 0 0 1 83.204 159.969L81.081 159.969" fill="#000000" stroke="transparent" data-fill-palette-color="tertiary"></path></g></svg></g><defs></defs></svg><rect width="395.52" height="247.2" fill="none" stroke="none" visibility="hidden"></rect></g></svg></g></svg>